<?xml version="1.0" encoding="UTF-8"?>
<!-- Generator: visioncortex VTracer -->
<svg id="svg" version="1.1" xmlns="http://www.w3.org/2000/svg" style="display: block; background: rgb(255, 255, 255);" viewBox="0 0 781 168"><path d="M0 0 C2.85892481 0.62583429 3.80162252 1.46714462 5.73046875 3.640625 C8.04858778 6.14016204 10.36249998 8.4551902 12.98046875 10.640625 C16.69552118 13.76520552 20.12249063 17.13603545 23.359375 20.7578125 C29.46999354 27.05970246 34.41777284 28.62481093 42.9375 29.1015625 C47.43368747 29.6462435 50.01505595 31.01511605 53.0234375 34.3828125 C53.52488281 35.04539063 54.02632812 35.70796875 54.54296875 36.390625 C57.90708245 40.40989433 61.34362991 42.28933857 66.0625 44.4453125 C71.63876449 47.04820257 75.31369842 51.26048137 78.35546875 56.515625 C78.35546875 57.175625 78.35546875 57.835625 78.35546875 58.515625 C79.01546875 58.70125 79.67546875 58.886875 80.35546875 59.078125 C87.89928466 62.69287012 92.73323651 69.03778466 97.63891602 75.61010742 C100.11951678 78.93202583 102.67413697 82.0811731 105.48046875 85.140625 C108.42366428 88.35677818 110.97073627 91.70066409 113.48046875 95.265625 C118.45442657 102.20019144 124.31570883 107.33506063 132.35546875 110.515625 C135.13476888 110.88459414 137.87232928 111.01642009 140.671875 111.1484375 C144.38663248 111.65671582 146.84831485 113.31315106 150.00390625 115.2421875 C157.60922517 119.36068246 166.09584951 119.70264453 174.55273438 120.03442383 C179.64644169 120.3015119 183.63229839 121.3895728 188.2265625 123.52734375 C191.19292676 124.90438991 194.19681348 125.69162797 197.35546875 126.515625 C197.35546875 127.835625 197.35546875 129.155625 197.35546875 130.515625 C-42.88453125 130.515625 -283.12453125 130.515625 -530.64453125 130.515625 C-530.97453125 129.525625 -531.30453125 128.535625 -531.64453125 127.515625 C-524.82136757 123.80733796 -519.20758711 123.00803623 -511.51953125 123.015625 C-494.40481813 122.64856767 -473.05663931 121.55177631 -458.83203125 110.828125 C-455.94197834 108.73141995 -454.9746183 108.20893331 -451.70703125 107.578125 C-446.70083534 106.53076348 -443.51479317 103.72562445 -439.64453125 100.515625 C-437.87381867 99.11963848 -436.10298219 97.72380912 -434.33203125 96.328125 C-432.09723248 94.54940761 -429.95418854 92.83833575 -427.9765625 90.77734375 C-426.64453125 89.515625 -426.64453125 89.515625 -424.64453125 89.515625 C-424.14953125 88.030625 -424.14953125 88.030625 -423.64453125 86.515625 C-420.9140625 85.53125 -420.9140625 85.53125 -417.45703125 84.765625 C-415.76513672 84.37117188 -415.76513672 84.37117188 -414.0390625 83.96875 C-410.48803845 83.49473528 -408.07720003 83.50239587 -404.64453125 84.515625 C-402.51171875 86.3359375 -402.51171875 86.3359375 -400.51953125 88.640625 C-394.26496681 95.24266524 -386.04367654 100.99511142 -376.8984375 102.58203125 C-373.17050712 102.47219621 -370.07197658 100.87036971 -366.6640625 99.453125 C-363.26089392 98.3965138 -360.75683117 98.44409628 -357.20703125 98.640625 C-340.470127 99.08648515 -322.56706356 94.67921472 -308.046875 86.3828125 C-304.67205265 84.53072859 -301.41274655 83.29954978 -297.76953125 82.078125 C-291.00739819 79.60927691 -286.71435625 75.48674544 -281.64453125 70.515625 C-278.27260787 67.49252128 -275.9345145 65.49217076 -271.20703125 65.578125 C-267.64453125 66.515625 -267.64453125 66.515625 -265.8125 67.29296875 C-262.26825749 68.6283758 -260.47853546 68.89110741 -256.9375 67.296875 C-252.52700238 64.54559331 -248.54852558 61.51089023 -244.70703125 58.015625 C-243.19109375 56.778125 -243.19109375 56.778125 -241.64453125 55.515625 C-236.9734935 56.07829303 -233.97280505 58.85192852 -231.09765625 62.453125 C-230.07559035 63.82937215 -229.06679986 65.21561975 -228.07421875 66.61328125 C-225.8755002 69.53889856 -224.56561229 71.27999962 -220.95703125 72.203125 C-220.19390625 72.30625 -219.43078125 72.409375 -218.64453125 72.515625 C-218.31453125 73.505625 -217.98453125 74.495625 -217.64453125 75.515625 C-215.85050225 76.47418318 -215.85050225 76.47418318 -213.64453125 76.515625 C-211.4413869 75.64575699 -211.4413869 75.64575699 -209.20703125 74.265625 C-201.26010503 70.04601816 -192.47295341 68.41768053 -183.55078125 67.72265625 C-181.43807082 67.55730116 -181.43807082 67.55730116 -178.70703125 66.578125 C-174.30498036 66.48828723 -171.77639442 68.54542813 -168.15625 70.91015625 C-165.99156585 72.29380351 -163.92385859 73.35760336 -161.58203125 74.390625 C-158.32516353 75.94151439 -156.14699535 77.86394394 -153.58203125 80.390625 C-149.68978513 84.00485354 -145.82097426 86.09882731 -140.95703125 88.078125 C-140.32724365 88.34157715 -139.69745605 88.6050293 -139.04858398 88.87646484 C-134.86501037 90.4692099 -131.95069543 90.70800619 -127.64453125 89.515625 C-123.90097309 87.39970082 -120.82515696 84.81326941 -117.64453125 81.953125 C-114.48031526 79.11851484 -111.44834568 77.41753222 -107.64453125 75.515625 C-105.48947064 73.72109145 -103.42615422 71.85772557 -101.37890625 69.94140625 C-99.64453125 68.515625 -99.64453125 68.515625 -97.64453125 68.515625 C-97.64453125 67.855625 -97.64453125 67.195625 -97.64453125 66.515625 C-96.80643921 66.08648804 -96.80643921 66.08648804 -95.95141602 65.64868164 C-83.36236905 59.56150146 -83.36236905 59.56150146 -72.83203125 50.640625 C-68.96241643 46.23160933 -64.75088553 44.90605593 -59.29833984 43.31567383 C-47.35044787 39.77206152 -35.22084197 30.57123752 -27.51953125 20.765625 C-24.70407803 17.22993957 -21.35266896 15.50379202 -17.4375 13.3359375 C-13.45378166 10.73955604 -10.16540817 7.51068148 -6.84326172 4.12207031 C-4.612017 1.93100771 -3.10878408 0.60614402 0 0 Z " transform="translate(557.64453125,19.484375)" style="fill: #000000;"/></svg>