<?xml version="1.0" encoding="UTF-8"?>
<svg xmlns="http://www.w3.org/2000/svg" viewBox="0 0 1920 1280">
  <defs>
    <style>
      .cls-1 {
        fill: #405467;
      }

      .cls-2 {
        fill: #2f4c68;
      }

      .cls-3 {
        fill: #0f1e2d;
      }

      .cls-4 {
        fill: #2e4b66;
      }

      .cls-5 {
        fill: #fff;
      }

      .cls-6 {
        fill: #192937;
      }

      .cls-7 {
        fill: #212c35;
      }

      .cls-8 {
        fill: #6a777d;
        mix-blend-mode: hue;
      }

      .cls-9 {
        isolation: isolate;
      }

      .cls-10 {
        fill: #243b50;
      }

      .cls-11 {
        fill: #070d13;
      }

      .cls-12 {
        fill: #acacac;
      }

      .cls-13 {
        fill: #23384d;
      }

      .cls-14 {
        fill: #1d3042;
      }

      .cls-15 {
        fill: #2f3e4b;
      }

      .cls-16 {
        fill: #070f16;
      }
    </style>
  </defs>
  <g class="cls-9">
    <g id="Layer_2" data-name="Layer 2">
      <g id="Layer_1-2" data-name="Layer 1">
        <g>
          <g>
            <rect class="cls-8" x="0" y="0" width="1920" height="1280"/>
            <g>
              <path class="cls-15" d="M0,266.26c9.75-2.19,21.96-4.87,23.47-4.87,2.56,0,28.16-12.8,33.28-13.65,5.12-.85,69.97-13.23,73.39-11.09,3.41,2.13,23.47,20.05,25.17,20.91,1.71.85,24.75,8.11,26.45,8.96,1.71.85,35.41,24.75,37.97,27.31s32.43,16.64,33.71,17.07c1.28.43,29.44,11.52,32.43,12.8,2.99,1.28,13.23,1.71,16.21,3.41,2.99,1.71,56.75,38.4,58.03,37.97,1.28-.43,25.17,0,25.17,0,0,0,34.99,9.81,36.27,9.81s26.88-15.79,29.01-15.79,26.88-12.37,29.44-11.95c2.56.43,30.72,3.41,32,3.41s28.16-.85,30.29-1.71c2.13-.85,11.09-3.84,12.37-4.27,1.28-.43,25.17,4.27,26.45,4.27s23.04-17.92,25.17-17.92,54.61-17.49,56.32-18.77c1.71-1.28,28.16-24.32,30.29-25.6,2.13-1.28,52.48-26.03,54.61-25.6,2.13.43,34.56,11.09,38.83,13.23,4.27,2.13,47.79,19.63,50.35,19.63s17.92,3.41,20.48,4.69,61.87,28.16,64.85,28.59c2.99.43,22.19-8.11,23.47-8.11s34.56-17.07,36.69-17.07,29.44,14.08,32,15.79c2.56,1.71,36.69,13.23,38.4,13.23s31.15-4.69,36.27-6.83c5.12-2.13,40.96-33.28,43.09-34.13,2.13-.85,139.82-188.55,141.1-187.7,1.28.85,16.79,135.65,19.78,136.08,2.99.43,157.42-11.95,159.12-11.1,1.71.85,57.17,18.77,59.31,19.2,2.13.43,44.8,10.24,46.93,10.67,2.13.43,37.12,13.23,38.83,13.65,1.71.43,40.53-5.97,41.81-5.55,1.28.43,40.53,13.23,41.81,13.65,1.28.43,17.49-.85,19.2-.43,1.71.43,56.32,14.93,58.45,14.93s19.2-8.96,20.91-10.24c1.71-1.28,16.21-22.61,18.35-23.89,2.13-1.28,27.31-18.77,29.01-20.05,1.71-1.28,16.64-17.07,18.35-17.49,1.71-.43,35.22-11.36,41-14.25,5.79-2.89,13.02-26.03,20.25-28.93,1.8-.72,7.02-3.69,13.84-7.74v1041.21H0V266.26Z"/>
              <path class="cls-1" d="M1713.92,550.25s-124.16-66.56-128-70.4-67.84-88.32-71.68-92.16-47.36-78.08-52.48-79.36c-5.12-1.28-16.64,11.52-19.2,7.68s-140.63-42.95-145.75-48.07-23.76-165.66-23.76-165.66c8.11-4.98,98.53-11.43,122.94.67,55.49,47.01,160.63,153.86,162.2,154.17,2.13.43,37.12,13.23,38.83,13.65,1.71.43,40.53-5.97,41.81-5.55,1.28.43,40.53,13.23,41.81,13.65,1.28.43,17.49-.85,19.2-.43,1.71.43,56.32,14.93,58.45,14.93,0,0-104.79,158.44-104.79,162.28s60.42,94.57,60.42,94.57Z"/>
              <path class="cls-7" d="M1053.44,355.69s3.84,25.6,0,23.04c-3.84-2.56-40.96-29.44-42.24-34.56-1.28-5.12-29.01-42.24-29.01-42.24,2.13,0,29.44,14.08,32,15.79,2.56,1.71,36.69,13.23,38.4,13.23l53.33,64.43-52.48-39.68Z"/>
              <path class="cls-1" d="M892.16,358.25c-7.68,5.12-6.4,56.32-10.24,58.88s-26.88,101.12-26.88,101.12c0,0-90.88-139.52-92.16-148.48-1.28-8.96,16.64-32,15.36-34.56s-30.72-74.24-30.72-74.24c2.13.43,34.56,11.09,38.83,13.23,4.27,2.13,47.79,19.63,50.35,19.63s17.92,3.41,20.48,4.69,61.87,28.16,64.85,28.59c0,0-22.19,26.03-29.87,31.15Z"/>
              <path class="cls-1" d="M344.32,444.01c-3.84,5.12-61.44,25.6-69.12,34.56-7.68,8.96-232.96,85.76-232.96,85.76,0,0,11.52-55.04,17.92-65.28,6.4-10.24,23.04-78.08,29.44-88.32,6.4-10.24,29.44-35.84,26.67-43.52-2.77-7.68-17.71-26.88-13.87-32,3.84-5.12,27.73-98.56,27.73-98.56,3.41,2.13,23.47,20.05,25.17,20.91,1.71.85,24.75,8.11,26.45,8.96,1.71.85,35.41,24.75,37.97,27.31s32.43,16.64,33.71,17.07c1.28.43,29.44,11.52,32.43,12.8,2.99,1.28,13.23,1.71,16.21,3.41,2.99,1.71,56.75,38.4,58.03,37.97,1.28-.43,25.17,0,25.17,0,0,0,34.99,9.81,36.27,9.81,0,0-84.91,48.64-90.03,51.2-5.12,2.56,16.64,12.8,12.8,17.92Z"/>
              <polygon class="cls-7" points="606.29 330.94 634.88 372.33 634.88 420.97 581.12 348.86 606.29 330.94"/>
              <polygon class="cls-7" points="1088.85 324.12 1164.8 330.94 1131.95 289.98 1088.85 324.12"/>
            </g>
            <path class="cls-7" d="M1920,1212.01H0v-694.76s30.72,4.14,30.72,4.14l69.12,22.96s52.48,4.71,57.6,7.07c5.12,2.36,37.25,20.58,37.25,20.58l99.01-74.23,57.6-8.24,76.8,16.49s72.96-14.13,76.8-12.95c3.84,1.18,86.46,88.97,91.58,88.97,5.12,0,143.96,41.21,143.96,41.21l181.58-82.43s58.45,1.18,60.16,0c1.71-1.18,62.29-16.49,67.41-21.2,5.12-4.71,56.32-16.49,56.32-16.49,0,0,69.12,2.35,74.24,0,5.12-2.36,38.4-15.31,38.4-15.31,0,0,79.36,2.36,84.48,6.41,5.12,4.06,96.1-39.97,99.94-42.98s49.92-13.48,53.76-16.75c3.84-3.27,94.72-16.75,94.72-16.75l89.6,32.97s80.64,1.18,85.76,0c5.12-1.18,85.66,33.56,89.5,33.56s58.88-16.49,69.12-17.66c4.65-.54,19.62-.58,34.56-.48v745.85Z"/>
            <g>
              <path class="cls-13" d="M156.4,707.52c33.82,3.05,129.41,11.44,135.21,9.51,7.05-2.35,79.95-16.46,85.83-18.81,5.88-2.35,108.17-9.41,118.75-10.58,10.58-1.18,63.49-39.97,68.19-43.5,4.7-3.53,49.38-48.21,49.38-48.21,0,0,82.3-51.73,88.18-56.3,5.88-4.57,56.44-42.46,61.14-44.81,4.7-2.35,56.43-16.46,59.96-18.81,3.53-2.35,49.38-28.22,49.38-28.22,0,0,56.44,55.26,63.49,61.14,7.05,5.88,62.31,57.61,67.41,61.14,5.09,3.53,70.15,39.97,74.85,47.03,4.7,7.05,61.14,65.84,69.37,70.54,8.23,4.7,50.56,18.81,54.08,16.46,3.53-2.35,54.08-45.85,58.79-48.21,4.7-2.35,54.08-52.91,57.61-51.73,3.53,1.18,57.61-39.97,57.61-42.33s21.16-36.45,27.04-41.15c5.88-4.7,63.49-61.14,70.54-72.9,7.05-11.76,72.9-72.9,76.42-72.9s61.14,49.38,64.67,51.73c3.53,2.35,69.37,35.27,69.37,35.27,0,0,90.53,57.61,94.06,59.96,3.53,2.35,43.5,14.11,48.2,17.64,3.39,2.54,61.73,28.28,94.06,42.47v630.05H156.4v-504.49Z"/>
              <path class="cls-2" d="M1683.68,461.89s90.53,57.61,94.06,59.96c3.53,2.35,43.5,14.11,48.2,17.64,3.39,2.54,61.73,28.28,94.06,42.47v365.7c-53.42-25.73-114.26-55.52-116.01-58.58-3.14-5.49-54.08-83.87-58.79-93.27-4.7-9.41-33.7-112.87-36.84-119.92-3.14-7.05-47.03-51.73-47.03-51.73v35.27s-30.57-50.95-31.35-59.57c-.78-8.62-10.19-92.49-14.89-99.55-4.7-7.05-65.45-125.41-65.45-125.41,3.53,0,61.14,49.38,64.67,51.73,3.53,2.35,69.37,35.27,69.37,35.27Z"/>
              <path class="cls-2" d="M1120.5,776.99c-2.35,3.14-43.11-17.24-43.11-17.24l-79.95,78.38s-84.65,73.68-92.49,78.38c-7.84,4.7-94.84,61.14-99.55,68.98-4.7,7.84-7.05-110.52-6.27-116.01.78-5.49,36.84-92.49,39.97-98.76,3.14-6.27-32.92,14.89-32.14,12.54.78-2.35,39.19-135.6,43.11-141.87,3.92-6.27-11.76-29.79-10.19-37.23,1.57-7.45,32.53-156.37,32.53-156.37,0,0,56.44,55.26,63.49,61.14,7.05,5.88,62.31,57.61,67.41,61.14,5.09,3.53,70.15,39.97,74.85,47.03,4.7,7.05,61.14,65.84,69.37,70.54,8.23,4.7,50.56,18.81,54.08,16.46-9.8,17.24-78.77,69.76-81.13,72.9Z"/>
              <path class="cls-14" d="M1375.64,561.83c0-1.15,5.02-9.82,10.85-18.96l44.41,100.09-112.87-38.8c3.53,1.18,57.61-39.97,57.61-42.33Z"/>
              <path class="cls-14" d="M504.9,684.07c18.58-9.88,55.58-37.02,59.48-39.94,4.7-3.53,49.38-48.21,49.38-48.21l-8.23,47.03-100.63,41.12Z"/>
            </g>
            <path class="cls-14" d="M0,640.52c13.44,2.75,37.11,7.44,42.24,7.44,7.25,0,44.8-1.71,49.92,0,5.12,1.71,29.01,7.68,31.57,6.83,2.56-.85,52.05-29.87,58.03-31.57,5.97-1.71,42.67-10.24,46.08-12.8,3.41-2.56,69.12-37.55,71.68-38.4,2.56-.85,48.64,46.08,52.05,48.64,3.41,2.56,38.4,50.35,43.52,52.91s86.19,9.39,91.31,9.39c5.12,0,53.76,22.19,58.03,23.89,4.27,1.71,61.44,26.45,64,27.31,2.56.85,68.27-23.04,71.68-23.89,3.41-.85,52.05,0,52.05,0,0,0,53.76-34.13,58.88-34.13s66.56-27.31,70.83-27.31,69.12,64.85,74.24,66.56c5.12,1.71,84.48,35.84,87.89,38.4,3.41,2.56,40.11,47.79,40.11,47.79,0,0,96.43,44.37,103.25,47.79,6.83,3.41,303.79,49.07,303.79,49.07h448.85v313.6H0v-571.49Z"/>
            <g>
              <path class="cls-10" d="M0,971.76c58.94-13,177.91-39.21,184.32-40.5,8.53-1.71,131.41-23.89,139.95-25.6,8.53-1.71,116.05-7.68,128-11.09,11.95-3.41,83.63-5.12,88.75-5.97,5.12-.85,88.75.85,94.72,0,5.97-.85,81.07-32.43,85.33-34.13,4.27-1.71,36.69-35.84,40.11-37.55,3.41-1.71,11.09-27.31,16.21-29.01,5.12-1.71,32.43-20.48,38.4-20.48s70.83-31.57,76.8-34.99c5.97-3.41,55.47-28.16,58.88-27.31,3.41.85,46.93,52.05,51.2,53.76,4.27,1.71,24.75,10.24,29.01,11.09,4.27.85,45.23-20.48,48.64-21.33,3.41-.85,36.69-34.99,38.4-32.43,1.71,2.56,46.93,30.72,52.05,32.43,5.12,1.71,35.84,16.21,42.67,18.77,6.83,2.56,76.8,50.35,84.48,48.64,7.68-1.71,63.15-8.53,67.41-9.39,4.27-.85,65.71-5.97,71.68-10.24,5.97-4.27,76.8-39.25,79.79-42.67,2.99-3.41,39.68-41.81,43.95-45.23,4.27-3.41,35.84-28.16,44.37-32.43,8.53-4.27,62.29-58.03,64-58.03s46.08,36.69,48.64,39.25,41.81,42.67,44.16,46.93c2.35,4.27,36.91,34.13,41.17,37.55,4.27,3.41,26.45,16.21,31.57,21.33,5.12,5.12,29.01,30.72,32.43,32.43,2.12,1.06,31.16,14.27,52.91,24.14v392.28H0v-240.25Z"/>
              <path class="cls-4" d="M1915.52,883.69c-4.48,2.56-21.76,63.36-23.68,63.36-1.92,0-28.8,18.56-29.44,18.75-.64.19,3.2,36.29,0,33.09-3.2-3.2-94.72-65.28-94.72-65.28,0,0-39.04-72.96-40.32-78.08-1.28-5.12-15.36-44.16-15.36-51.84,0-7.68-7.04-62.08-10.24-67.2-3.2-5.12-20.48-43.52-21.12-49.28-.64-5.76-9.47-67.77-9.48-67.85,8.99,6.44,44.32,35.71,46.6,37.98,2.56,2.56,41.81,42.67,44.16,46.93,2.35,4.27,36.91,34.13,41.17,37.55,4.27,3.41,26.45,16.21,31.57,21.33,5.12,5.12,29.01,30.72,32.43,32.43,2.12,1.06,31.16,14.27,52.91,24.14v37.42s-19.84,22.07-19.84,22.07c0,0,19.84,1.92,15.36,4.48Z"/>
              <path class="cls-4" d="M1239.68,845.29s-18.56,42.88-17.92,44.8,22.4,67.2,22.4,67.2c0,0-78.08-45.44-78.72-47.36s-20.48-88.32-21.76-89.6-6.4-47.36-8.96-53.76c-2.56-6.4-16-50.35-16-50.35,1.71,2.56,46.93,30.72,52.05,32.43,5.12,1.71,35.84,16.21,42.67,18.77,6.83,2.56,76.8,50.35,84.48,48.64l-53.76,54.83-4.48-25.6Z"/>
              <polygon class="cls-6" points="1512.89 756.33 1474.56 809.22 1493.73 836.76 1442.13 851.05 1437.01 796.44 1512.89 756.33"/>
              <path class="cls-6" d="M1035.95,809.22l-33.28-50.34c4.27,1.71,24.75,10.24,29.01,11.09,4.27.85,45.23-20.48,48.64-21.33l-44.37,35.41v25.17Z"/>
            </g>
            <g>
              <path class="cls-3" d="M0,1280v-495.63c10.56,15.99,29.94,45.12,31.28,45.56,1.84.61,36.18,14.72,38.64,14.11,2.45-.61,23.92-18.4,26.98-20.24,3.07-1.84,14.11-38.02,20.24-39.86,6.13-1.84,39.25-24.53,45.38-28.21,6.13-3.68,36.8-27.6,42.93-30.66,6.13-3.07,50.9-13.49,54.58-12.27,3.68,1.23,41.09,21.47,46.61,25.14,5.52,3.68,39.86,10.43,42.93,11.65,3.07,1.23,28.82,9.2,33.73,13.49,4.91,4.29,60.1,42.32,64.4,44.16s37.41,9.2,46,17.17c8.59,7.97,40.48,49.06,47.84,53.97,7.36,4.91,49.68,57.04,55.2,57.65,5.52.61,45.38-18.4,50.29-20.24,4.91-1.84,39.86-23.31,44.77-23.31,4.91,0,28.82-6.13,31.28-6.75,2.45-.61,35.57-13.49,37.41-12.88,1.84.61,18.4,14.11,20.24,14.11s32.5,11.04,35.57,11.65c3.07.61,39.86-22.08,42.32-19.63,2.45,2.45,38.64,42.32,44.16,46,5.52,3.68,29.44,20.24,33.73,23.92,4.29,3.68,38.64,49.06,44.77,52.74,6.13,3.68,45.38,22.69,50.9,27.6,5.52,4.91,58.88,41.09,58.26,41.09s42.32-25.76,44.16-26.98c1.84-1.23,31.28-1.84,34.96-1.84,3.68,0,20.24,7.36,23.92,8.59,3.68,1.23,29.44-9.2,33.73-9.2,4.29,0,46.61-16.56,50.29-15.95,3.68.61,24.53,23.3,28.21,25.76,3.68,2.45,26.98,23.92,30.66,23.3,3.68-.61,34.34-3.07,36.8-3.07s39.86-24.53,42.32-23.92c2.45.61,36.8,28.82,38.02,30.66,1.23,1.84,47.84,46,49.68,46.61,1.84.61,30.66,22.69,30.66,22.69,0,0,37.41,7.97,39.86,9.2,2.45,1.23,39.25,33.73,43.54,36.8,2.08,1.49,15.81,10.31,29.42,19.01L0,1280Z"/>
              <polygon class="cls-16" points="816.29 898.62 799.93 936.23 858.61 878.99 816.29 898.62"/>
              <polygon class="cls-16" points="1415.47 1047.03 1349.24 1098.14 1373.16 1070.95 1415.47 1047.03"/>
              <path class="cls-16" d="M111.21,826.03l-27.8,64.61-13.49-46.61c2.45-.61,23.92-18.4,26.98-20.24,2.3-1.38,9.06-22,14.89-33.05l5.35-6.81,23.51,56.01-29.44-13.91Z"/>
            </g>
            <g>
              <path class="cls-11" d="M345.6,1124.97c8.96-2.56,71.68-19.2,75.95-20.48,4.27-1.28,40.53,1.28,57.17,5.71,16.64,4.43,23.5.14,31.18-1.14,7.68-1.28,8.05-17.64,14.45-18.92,6.4-1.28,30.72-24.32,43.52-30.96,12.8-6.64,74.24-17.68,74.24-17.68,0,0,15.36,25.6,19.2,24.32,3.84-1.28,46.08-67.84,51.2-69.12,5.12-1.28,48.64-24.32,51.2-22.21s98.56,49.09,111.09,55.49c12.53,6.4,169.68,54.03,177.36,54.72s33.28,24.91,48.64,25.5c15.36.59,120.32,10.93,125.44,9.65s40.96-12.8,46.08-9.65c5.12,3.15,34.56,7.09,43.52,10.93,8.96,3.84,61.44,15.36,66.56,14.08,5.12-1.28,60.16-11.52,67.84-14.08s26.88-16.64,40.96-21.76c14.08-5.12,87.04-17.92,97.28-17.92,10.24,0,67.84-28.16,67.84-28.16l14.84,19.07,33.8,29.57,17.92-15.36s21.76-12.8,25.6-14.21c3.84-1.41,40.96,24.45,44.8,24.45,3.84,0,23.04,10.24,26.88,13.39,3.84,3.15,26.88-12.11,32-14.67,5.12-2.56,17.92-19.2,21.76-21.76,2.29-1.53,26.72-15.34,46.08-26.24v232.47H0c41.52-14.96,250.74-109.52,259.84-114.07,12.8-6.4,76.8-38.4,85.76-40.96Z"/>
              <path d="M1704.96,1101.93l17.92-15.36s21.76-12.8,25.6-14.21l-43.52,58.59v-29.01Z"/>
              <path d="M1239.04,1146.3l-83.63-19.86,30.72,19.86-48.21-10.24-49.07-29.49h.03c4.28,2.06,8.38,3.49,11.91,3.62,15.36.59,120.32,10.93,125.44,9.65s40.96-12.8,46.08-9.65c5.12,3.15,34.56,7.09,43.52,10.93,8.5,3.64,56.17,14.2,65.39,14.17l-142.19,11Z"/>
              <path d="M661.31,1065.82c1.57-.52,9.58-11.99,18.84-25.43l32.36-43.69-53.73,106.94,2.53-37.82Z"/>
            </g>
          </g>
          <path class="cls-12" d="M1284.44,193.92s-.03-.03-.03-.03c-2.15-2.64-11.37,20.58-11.37,20.58,0,0-20.04,39.53-32.84,36.4s.28-13.93,0-37.27c-.28-23.32-19.35-4.53-33.84,6.84-14.52,11.39-10.34-15.8-10.34-15.8,3.3-8.99,56.09-85.99,71.42-102.48,7.24,13.31,15.51,79.51,17,91.75Z"/>
          <path class="cls-5" d="M1505.58,205.64c-5.96,3.71-40.09-23.6-46.36-19.61-6.25,3.97.87,21.89-13.08,29.29-13.93,7.4-22.17-8.81-29-8.24-6.84.56-13.08,38.68-20.2,38.4s-28.16-49.2-32.43-51.48c-4.25-2.28-1.69,27.01-9.65,30.72-7.99,3.69-29.59-33.84-34.15-32.72s9.11,41.8-2.84,50.64c-11.93,8.78-31.18-45.82-33.41-48.72-1.48-12.24-9.75-78.44-17-91.75,1.41-1.48,2.48-2.48,3.2-2.89,8.52-4.84,106.37-6.27,114.33-5.12,7.96,1.13,104.11,83.92,120.6,111.49Z"/>
        </g>
      </g>
    </g>
  </g>
</svg>