<?xml version="1.0" encoding="UTF-8"?>
<!-- Generator: visioncortex VTracer -->
<svg id="svg" version="1.1" xmlns="http://www.w3.org/2000/svg" style="display: block; background: rgb(255, 255, 255);" viewBox="0 0 625 83"><path d="M0 0 C2.22738586 1.41067771 3.25685306 3.0883589 4.62109375 5.30859375 C8.98249061 11.84389558 15.21062968 19.65712626 23.1015625 21.7890625 C24.58193455 22.08117605 26.07084532 22.33483341 27.56640625 22.53515625 C33.30294738 24.15614165 37.11957969 28.26252688 40.9375 32.625 C46.38191809 39.3477118 46.38191809 39.3477118 53.25 44.3125 C56.66962331 44.14966079 58.08440146 42.50645208 60.6796875 40.43359375 C63.48821713 38.83942835 65.79189649 38.7196585 69 38.4375 C75.9626871 37.60613438 80.37987577 34.61343493 85.7890625 30.50390625 C89.29341434 27.87342442 92.93930429 25.71631395 96.75390625 23.57421875 C99.12116618 22.02656262 100.94199022 20.24324056 102.875 18.1875 C105.48836774 19.13121613 107.56906497 19.9237629 109.6875 21.75 C112.89097534 23.85514094 116.08936591 24.08518557 119.875 24.1875 C121.92896726 23.77820014 121.92896726 23.77820014 123.875 23.1875 C130.25656893 22.7396706 130.25656893 22.7396706 132.6875 24.5 C133.77491036 26.04526736 134.82687897 27.61531846 135.875 29.1875 C138.16512492 29.87021113 138.16512492 29.87021113 140.75 30.3125 C145.44270281 31.60029632 145.44270281 31.60029632 147.28125 34.09765625 C148.27392808 36.43125028 149.08024403 38.77997093 149.875 41.1875 C151.89968858 46.01755706 151.89968858 46.01755706 154.875 50.1875 C158.24806618 50.77164702 158.24806618 50.77164702 161.875 50.1875 C164.24727618 47.33781532 164.24727618 47.33781532 165.875 44.1875 C169.48655478 42.38172261 172.95564039 42.34763723 176.875 43.1875 C179.6592761 44.96892893 182.03574178 46.96907283 184.51171875 49.15625 C186.56934268 50.92478627 188.42318094 52.19002395 190.8125 53.4375 C193.74290626 55.11201786 195.14610803 56.33991322 196.875 59.1875 C197.535 58.61 198.195 58.0325 198.875 57.4375 C201.875 56.1875 201.875 56.1875 203.84765625 56.7734375 C206.72716906 58.2051205 209.30657501 59.73412696 211.82421875 61.7421875 C218.27113676 66.28572972 227.90659085 66.84376672 235.56738281 68.18554688 C240.67902022 69.08951011 240.67902022 69.08951011 242.875 70.1875 C242.875 71.1775 242.875 72.1675 242.875 73.1875 C42.235 73.1875 -158.405 73.1875 -365.125 73.1875 C-365.125 72.5275 -365.125 71.8675 -365.125 71.1875 C-358.02184184 69.06087058 -351.04276752 67.12331336 -343.75 65.75 C-338.65706831 64.71540894 -334.86899426 63.34164214 -330.67578125 60.2734375 C-327.44348724 58.01001751 -324.51920149 58.08942105 -320.72265625 58.16015625 C-319.66755859 58.17240234 -318.61246094 58.18464844 -317.52539062 58.19726562 C-315.30397024 58.23236121 -313.08260873 58.27141011 -310.86132812 58.31445312 C-309.80494141 58.32541016 -308.74855469 58.33636719 -307.66015625 58.34765625 C-306.694729 58.36449463 -305.72930176 58.38133301 -304.73461914 58.39868164 C-301.9732863 58.17522267 -300.41471297 57.72830393 -298.125 56.1875 C-297.58875 55.176875 -297.0525 54.16625 -296.5 53.125 C-294.125 50.1875 -294.125 50.1875 -291.6484375 49.57421875 C-289.13020044 49.3365823 -286.65382715 49.19715201 -284.125 49.1875 C-283.795 50.1775 -283.465 51.1675 -283.125 52.1875 C-281.949375 51.011875 -281.949375 51.011875 -280.75 49.8125 C-279.20833333 48.27083333 -277.66666667 46.72916667 -276.125 45.1875 C-274.11779077 45.47424418 -272.11869031 45.81829809 -270.125 46.1875 C-265.79018899 46.66242949 -262.91121175 46.57289792 -258.9375 44.625 C-256.51098743 42.52202244 -255.58069951 41.38737449 -254.03125 38.76171875 C-250.86937548 34.24349366 -246.93130659 33.12403477 -241.8125 31.5625 C-236.76397702 29.95271051 -232.25182092 28.42226541 -227.83203125 25.4453125 C-224.44064032 23.19851071 -224.44064032 23.19851071 -221.4375 23.09375 C-220.674375 23.2896875 -219.91125 23.485625 -219.125 23.6875 C-215.15462342 24.34516974 -213.26983548 24.14025584 -209.875 21.9375 C-208.61757607 21.0310438 -207.36700459 20.11497096 -206.125 19.1875 C-201.82974041 16.69624944 -199.09217523 15.58145709 -194.125 16.1875 C-191.55602375 17.66449149 -189.31641554 19.5343792 -187 21.375 C-179.35078158 27.05941387 -172.18487473 29.14099364 -162.96484375 31.0625 C-158.40704435 32.03281803 -154.36624244 33.60407122 -150.125 35.5 C-143.41879459 38.31834064 -138.30172183 38.79905023 -131.125 38.1875 C-129.84882813 38.14109375 -128.57265625 38.0946875 -127.2578125 38.046875 C-119.4703427 37.72334034 -113.93183778 36.99730884 -107.5 32.25 C-104.33606711 30.31648545 -101.89627057 29.4596591 -98.375 28.4375 C-92.62583652 26.65376695 -89.00894013 23.92625229 -84.51171875 20.015625 C-81.53140078 17.73282826 -78.7473636 16.74243424 -75.1328125 15.85546875 C-72.98608919 15.28115166 -72.98608919 15.28115166 -71.16796875 13.515625 C-69.125 12.1875 -69.125 12.1875 -66.79296875 12.62890625 C-65.97441406 12.99886719 -65.15585937 13.36882813 -64.3125 13.75 C-63.42949219 14.14058594 -62.54648437 14.53117187 -61.63671875 14.93359375 C-59.55070139 15.97498033 -57.59928349 17.079159 -55.625 18.3125 C-51.21959612 20.67253779 -47.15202473 22.07343461 -42.125 22.1875 C-38.78651637 20.7981588 -38.78651637 20.7981588 -36.8984375 19.38671875 C-34.90347892 18.03770491 -32.92818601 17.25062644 -30.6875 16.375 C-27.20203062 14.89720808 -24.89485832 13.19889933 -22.1875 10.5625 C-18.4464907 7.03803615 -15.4552322 6.39011534 -10.453125 5.72265625 C-7.84811313 5.12385319 -6.69101882 4.2988735 -4.75 2.5 C-2.125 0.1875 -2.125 0.1875 0 0 Z " transform="translate(372.125,2.8125)" style="fill: #000000;"/></svg>