<svg id="svg" xmlns="http://www.w3.org/2000/svg" style="display:block">
  <path d="M0 0 C6.21288876 0.15308966 11.43494438 3.79807436 16.1875 7.5 C18.75351504 10.45959931 20.98155848 13.47219953 23.15234375 16.73046875 C26.51134002 21.30154046 29.73971873 23.70546715 35.25 25 C39.21208571 26.08056883 41.72260807 27.02674319 44.1875 30.5 C44.1875 31.16 44.1875 31.82 44.1875 32.5 C48.60987641 35.05137101 52.51755759 35.86828368 57.53515625 34.76171875 C62.20789336 34.4268809 63.31528788 35.64005557 66.8125 38.625 C71.22399911 41.85479416 71.22399911 41.85479416 76.5 42.3671875 C78.71722227 41.78673544 80.91710182 41.1357444 83.09375 40.41796875 C86.19472653 39.49785576 88.1388959 39.47605779 91.3125 39.8125 C98.0294584 40.03022961 102.37798418 35.74162838 107.1875 31.5 C111.00089163 27.9256742 114.64564804 24.22142508 118.1328125 20.328125 C120.47841443 18.24116359 122.07147267 17.6398763 125.125 17 C125.95902344 16.8040625 126.79304687 16.608125 127.65234375 16.40625 C131.36629132 16.54359167 132.65353621 17.83178647 135.1875 20.5 C136.28279938 22.94400992 137.17058145 25.22511092 138 27.75 C140.36590314 34.20715582 143.0161768 39.85222175 149.1875 43.5 C152.85867945 43.56222338 155.21641173 42.84859579 158.625 41.625 C163.05899202 41.40870771 165.93244339 43.64732123 169.1875 46.5 C172.08093584 50.01803361 174.61821582 53.74235312 177.1875 57.5 C180.17447837 61.57946212 180.17447837 61.57946212 184.1875 64.5 C185.95915801 64.46861797 187.73028082 64.4011057 189.5 64.3125 C194.60449895 64.26621568 196.39358882 64.99792814 200.1875 68.5 C201.83412786 69.21472996 203.50401061 69.87703476 205.1875 70.5 C208.36871087 71.68065558 210.16421828 72.47955752 212.75 74.75 C216.41732542 77.38295158 219.81269543 77.162621 224.1875 76.5 C226.10930765 75.81539556 226.10930765 75.81539556 227.875 74.9375 C231.69443629 73.28000878 233.26533234 73.22103229 237.1875 74.5 C237.91324219 75.098125 238.63898437 75.69625 239.38671875 76.3125 C245.15992532 80.82155952 253.70686146 85.87628101 261.2109375 85.24609375 C263.74116276 84.41280947 263.74116276 84.41280947 266.09765625 83.37109375 C269.5102744 81.94863796 271.69887255 82.44095238 275.1875 83.5 C276.76382573 84.49935186 278.32508779 85.52265429 279.875 86.5625 C285.57442883 90.14846282 290.58799958 90.74855413 297.1875 89.5 C299.65415793 88.35093575 301.76788563 87.10845848 303.95703125 85.49609375 C307.28392224 84.01035434 309.82174352 84.4504382 313.1875 85.5 C317.15930121 87.23489112 320.97747249 89.23375004 324.8125 91.25 C341.44692451 100.47357296 341.44692451 100.47357296 359.8359375 103.31640625 C382.36211423 102.20039749 406.61633529 108.17697214 427.1875 117.5 C428.21759793 118.46896762 429.22465627 119.46417571 430.1875 120.5 C349.16666881 120.53107521 268.14583648 120.55236321 -287.39657771 120.08623637 C-293.50348467 120.06761878 -299.61039359 120.04979537 -305.71730423 120.03242874 C-326.05473792 119.97454629 -346.39214139 119.91140972 -366.72952937 119.83915439 C-371.70727973 119.82161186 -376.68503342 119.80584811 -381.66279221 119.79090881 C-415.05603995 119.68942534 -448.42866882 119.3151645 -481.8125 118.5 C-481.3175 117.51 -481.3175 117.51 -480.8125 116.5 C-477.98364258 116.13696289 -477.98364258 116.13696289 -474.20703125 115.97265625 C-472.8157536 115.90172422 -471.42447762 115.83075951 -470.03320312 115.75976562 C-467.85079751 115.66017989 -465.66827425 115.56435186 -463.4855957 115.47094727 C-445.91226178 114.82938674 -445.91226178 114.82938674 -429.8125 108.5 C-427.52685547 107.77978516 -427.52685547 107.77978516 -425.1796875 107.2890625 C-424.30006348 107.09884521 -423.42043945 106.90862793 -422.51416016 106.71264648 C-421.5813623 106.51872314 -420.64856445 106.3247998 -419.6875 106.125 C-417.71302356 105.69377172 -415.73907273 105.26013057 -413.765625 104.82421875 C-412.27579102 104.49623291 -412.27579102 104.49623291 -410.75585938 104.16162109 C-406.29718407 103.15938071 -401.86388918 102.07317738 -397.4375 100.9375 C-396.68452637 100.75203613 -395.93155273 100.56657227 -395.15576172 100.37548828 C-391.43475899 99.40751065 -388.52015088 98.35003759 -385.2734375 96.28515625 C-379.55770099 93.27698477 -373.17699519 94.73931585 -366.98876953 95.32446289 C-361.32381561 95.78139601 -355.62595642 95.72453972 -349.94580078 95.74023438 C-347.78511584 95.75012536 -345.62531522 95.78140709 -343.46484375 95.8125 C-331.8453915 95.94546302 -331.8453915 95.94546302 -321.6796875 90.828125 C-319.05953328 88.96441698 -317.12980091 89.23438973 -313.9375 89.25 C-304.15830719 88.79611341 -295.24918714 85.4278001 -286.06396484 82.24023438 C-281.60409665 80.77392334 -278.26101662 80.540422 -273.51733398 80.81958008 C-262.77019159 81.33582769 -255.66971643 78.99553669 -246.52832031 73.52636719 C-244.10460532 72.07655247 -241.62815245 70.74445571 -239.125 69.4375 C-238.39925781 69.03402344 -237.67351562 68.63054687 -236.92578125 68.21484375 C-234.19733255 67.29191193 -232.5718253 67.7841373 -229.8125 68.5 C-228.45940043 68.63606588 -227.10520756 68.76184152 -225.75 68.875 C-221.8125 69.5 -221.8125 69.5 -219.85546875 71.02734375 C-216.61394877 73.36396523 -214.13425658 72.79963268 -210.28515625 72.34375 C-201.24785522 70.14796032 -192.8035366 65.54304147 -184.55859375 61.328125 C-181.76846212 59.92254404 -179.09217826 58.86414844 -176.0625 58.0625 C-171.9315127 56.76802966 -170.31894373 55.0806339 -167.8125 51.5 C-166.16428756 50.46986723 -164.49746298 49.46885372 -162.8125 48.5 C-162.19375 47.88125 -161.575 47.2625 -160.9375 46.625 C-153.8525 39.54 -153.8525 39.54 -148.625 39.4375 C-145.8125 40.5 -145.8125 40.5 -143.875 42.5 C-140.97309106 45.31397231 -138.81132554 45.17751407 -134.8125 45.5 C-134.02230469 45.62503906 -133.23210937 45.75007813 -132.41796875 45.87890625 C-123.13227294 47.23396171 -117.99672024 44.40680699 -110.55859375 39.16015625 C-107.13449123 37.0901085 -103.57675783 35.68296895 -99.875 34.1875 C-91.63885736 30.79009116 -85.86991796 25.98538091 -79.88671875 19.37109375 C-75.79635488 15.17910594 -73.05476121 14.02824102 -67.125 13.875 C-61.35000842 14.02715547 -57.88016661 15.39591656 -53.81640625 19.53125 C-50.16707219 23.11656065 -45.81531754 24.68453427 -40.8125 25.5 C-36.83286085 24.74048717 -33.44543313 23.25422005 -29.8125 21.5 C-28.94753906 21.16484375 -28.08257812 20.8296875 -27.19140625 20.484375 C-24.57955358 19.49388997 -24.57955358 19.49388997 -21.625 17.375 C-18.8125 15.5 -18.8125 15.5 -16.8125 15.5 C-16.544375 14.736875 -16.27625 13.97375 -16 13.1875 C-14.18206055 9.07321599 -11.2617613 6.99964206 -7.6875 4.375 C-2.30091277 0.40905116 -2.30091277 0.40905116 0 0 Z"
        
        style="fill:#000"/>
 
</svg>
