<svg id="svg" xmlns="http://www.w3.org/2000/svg" viewBox="0 0 515 414" preserveAspectRatio="none" style="display:block">
  <path d="M0 0 C5.4813163 5.4813163 5.00927727 18.08563637 5.8125 25.5 C9.48763491 51.80622881 16.53790367 75.83824776 39 92 C53.63301051 100.5359228 69.46166727 103.71885066 86 106 C88.9390625 106.556875 88.9390625 106.556875 91.9375 107.125 C97.22710817 108.12177081 97.22710817 108.12177081 103.5625 108.5 C109 109 109 109 111 111 C100.56986582 113.3178076 90.13765828 115.39742841 79.5625 116.9375 C61.14209899 119.91985064 44.1359542 124.25773143 30 137 C28.1746875 138.60875 28.1746875 138.60875 26.3125 140.25 C15.44111419 152.55722921 10.91716774 167.74489013 7.875 183.5625 C7.12089844 187.47029297 7.12089844 187.47029297 6.3515625 191.45703125 C5.2008369 197.87914436 4.17060894 204.29178877 3.25 210.75 C2 219 2 219 0 221 C-1.24184493 214.31667199 -2.35067688 207.6552053 -3.375 200.9375 C-5.20554148 188.97823234 -7.04427105 177.48106987 -11 166 C-11.99 163.03 -12.98 160.06 -14 157 C-23.99840182 136.02774253 -40.4317177 126.16451551 -62.25 120.328125 C-74.7693763 117.3737862 -87.30335134 115.03146379 -100 113 C-102.31 112.34 -104.62 111.68 -107 111 C-107 110.67 -107 110.34 -107 110 C-103.00141237 109.32491378 -99.00093631 108.66102426 -95 108 C-90.19327619 107.00168044 -85.39591652 105.96395715 -80.59765625 104.92578125 C-76.92700814 104.18666179 -73.21540893 103.65192612 -69.5 103.1875 C-49.16777426 99.47295876 -30.33246217 90.80815483 -19 73 C-12.9574901 62.26933587 -9.71240993 51.89869023 -7 40 C-6.64035156 38.44925781 -6.28070313 36.89851563 -5.91015625 35.30078125 C-3.99028253 26.62874788 -2.54516355 17.99298068 -1.375 9.1875 C-0.92125 6.155625 -0.4675 3.12375 0 0 Z" transform="translate(353,37)" fill="#000"/>
  <path d="M0 0 C0.99 0.495 0.99 0.495 2 1 C4.0887468 10.63518683 5.87999364 20.18281381 7.3125 29.9375 C11.40516874 51.91664695 18.77716762 72.93833184 38 86 C50.96987748 92.88666061 62.55132439 96.52308418 77 99 C78.876875 99.495 80.75375 99.99 82.6875 100.5 C90.6969135 102.40322697 98.73050336 103.30667917 106.90234375 104.25390625 C108.25457031 104.50011719 109.60679687 104.74632812 111 105 C106.49667484 108.00221677 101.89553373 108.08467902 96.5625 108.875 C53.69808625 115.09164702 53.69808625 115.09164702 21.25 141.6875 C12.65244635 156.48034965 8.38562223 172.14160288 6 189 C5.02214865 194.33743863 4.02315637 199.67106057 3 205 C2.62875 206.98 2.2575 208.96 1.875 211 C1.58625 212.32 1.2975 213.64 1 215 C0.67 215 0.34 215 0 215 C-2.40317556 203.86333277 -4.49020622 192.65852006 -6.0625 181.375 C-10.29309283 152.60696877 -21.75641238 135.15224227 -46 120 C-60.75253442 114.6663914 -75.59750999 112.25522584 -91.06103516 110.00415039 C-103.55151518 108.17939393 -103.55151518 108.17939393 -109 106 C-105 104 -105 104 -96.125 102.8125 C-64.80788444 98.55875457 -33.97753072 92.33746368 -16 64 C-13.18477383 57.31827896 -13.18477383 57.31827896 -11 50 C-9.6696875 45.7925 -9.6696875 45.7925 -8.3125 41.5 C-6.24858138 33.91370454 -5.0231755 26.77613377 -4 19 C-2.83623383 12.60659006 -1.47937171 6.33356011 0 0 Z" transform="translate(200,117)" fill="#000"/>
  <path d="M0 0 C0.66 0 1.32 0 2 0 C2.77179791 4.63078745 3.5333886 9.2636275 4.23046875 13.90625 C7.09840413 32.88994407 11.40749486 51.31821948 28.1875 62.4375 C34.22485815 65.6521972 39.29047376 67.32261844 46 69 C49.7125 69.99 49.7125 69.99 53.5 71 C62.04719578 73.17288902 62.04719578 73.17288902 71.125 74.125 C73.39375 74.41375 75.6625 74.7025 78 75 C72.79043602 80.20956398 61.00329954 79.84643374 53.875 80.9375 C36.19896451 84.13422982 22.54589891 90.28904138 13 106 C6.37694264 117.98457999 5.09650436 131.42097386 2.875 144.75 C2.58625 146.1525 2.2975 147.555 2 149 C1.34 149.33 0.68 149.66 0 150 C-1.88659143 141.58399644 -3.44416303 133.11808846 -5.05078125 124.64453125 C-9.23841024 106.07294218 -16.02835638 95.1144012 -33 86 C-42.82546912 82.22860781 -52.33899946 80.34335491 -62.75 79 C-70 78 -70 78 -76 76 C-76 75.67 -76 75.34 -76 75 C-71.91289867 74.25689067 -67.82460677 73.51971461 -63.73046875 72.81640625 C-43.42477776 69.31195586 -25.98861628 66.247179 -13 49 C-7.4372351 38.05685593 -4.77992321 28.10347781 -3 16 C-2.0780386 10.65262386 -1.10097626 5.31340717 0 0 Z" transform="translate(312,241)" fill="#000"/>
  <path d="M0 0 C0.33 0 0.66 0 1 0 C1.433125 2.76375 1.86625 5.5275 2.3125 8.375 C4.47720343 21.76253483 8.79885456 33.95919819 20.375 42.0625 C29.29530755 46.72088283 38.05576711 48.75697089 48 50 C45 52 45 52 36.0625 53.6875 C24.4826949 56.04553753 16.66699864 59.79960164 9 69 C4.52555262 77.94889475 3.56041154 87.21196396 2 97 C1.34 98.32 0.68 99.64 0 101 C-2 94 -2 94 -2.75 86.8125 C-4.88882385 73.44485092 -9.73503167 65.50997888 -21 58 C-29.51408307 54.80721885 -37.53492207 53.42068351 -46.46875 51.96484375 C-47.9640625 51.64644531 -49.459375 51.32804687 -51 51 C-51 50.34 -51 49.68 -51 49 C-46.67013638 48.31115806 -42.33580896 47.65037134 -38 47 C-23.51457527 43.92733415 -14.54483039 41.11363378 -7 28 C-3.588191 20.03911234 -2.40993817 12.5237171 -1 4 C-0.67 2.68 -0.34 1.36 0 0 Z" transform="translate(254,29)" fill="#000"/>
</svg>
